<?xml version="1.0" encoding="UTF-8"?><svg xmlns="http://www.w3.org/2000/svg" xmlns:xlink="http://www.w3.org/1999/xlink" height="510.9" preserveAspectRatio="xMidYMid meet" version="1.0" viewBox="-11.5 0.0 423.7 510.9" width="423.7" zoomAndPan="magnify"><defs><clipPath id="a"><path d="M 58 78 L 412.171875 78 L 412.171875 458 L 58 458 Z M 58 78"/></clipPath></defs><g><g id="change1_1"><path d="M 394.25 445.398438 C 381.117188 461.195312 351.238281 471.746094 333.132812 479.152344 C 255.484375 510.921875 170.117188 504.09375 92.941406 474.109375 C 52.0625 458.226562 23.671875 444.621094 9.304688 405.207031 C -11.519531 348.085938 5.53125 284.632812 31.683594 232.203125 C 36.957031 221.636719 43.984375 208.984375 49.582031 200.074219 C 67.492188 171.558594 78.539062 167.738281 100.917969 194.976562 C 111.769531 208.183594 156.765625 266.359375 181.054688 251.074219 C 197.140625 240.953125 139.34375 192.484375 133.230469 180.796875 C 113.167969 142.441406 102.53125 99.839844 118.472656 82.996094 C 147.582031 52.238281 161.644531 33.546875 207.851562 16.132812 C 204.070312 13.097656 194.761719 6.394531 197.898438 0 C 269.585938 3.902344 314.019531 7.0625 344.867188 80.042969 C 344.867188 80.042969 357.191406 116.875 354.664062 129.613281 C 352.136719 142.355469 329.59375 192.382812 329.59375 192.382812 C 301.703125 258.996094 398.667969 290.675781 406.835938 358.257812 C 407.390625 382.359375 411.210938 424.996094 394.25 445.398438" fill="#f8e505"/></g><g id="change2_1"><path d="M 285.992188 75.035156 C 284.027344 77.144531 279.953125 76.546875 276.894531 73.699219 C 273.835938 70.847656 272.945312 66.828125 274.910156 64.71875 C 276.875 62.609375 280.949219 63.207031 284.007812 66.054688 C 287.066406 68.90625 287.953125 72.925781 285.992188 75.035156" fill="#fff"/></g><g clip-path="url(#a)" id="change3_1"><path d="M 155.058594 445.648438 C 145.371094 442.214844 134.617188 437.023438 127.859375 429.027344 C 125.074219 425.734375 122.671875 422.3125 121.691406 418.035156 C 121.183594 415.808594 123.347656 405.96875 122.683594 405.066406 C 119.558594 400.792969 100.675781 399.355469 94.738281 395.988281 C 85.382812 390.683594 77.625 382.222656 75.632812 371.355469 C 73.675781 360.675781 77.34375 350.449219 85.25 343.011719 C 95.644531 333.234375 96.207031 337.992188 89.222656 324.621094 C 84.421875 315.433594 79.960938 304.921875 79.195312 294.449219 C 78.875 290.097656 80.554688 269.71875 86.003906 269.390625 C 69.414062 270.394531 61.675781 283.261719 62.144531 298.4375 C 62.574219 312.472656 75.929688 325.210938 76.378906 337.359375 C 76.675781 345.410156 76.195312 341.152344 68.335938 348.546875 C 64.203125 352.433594 60.867188 357.324219 59.242188 362.789062 C 54.492188 378.734375 64.242188 393.820312 77.820312 401.523438 C 84.476562 405.300781 93.386719 405.167969 99.59375 408.777344 C 109.273438 414.410156 102.257812 408.996094 104.160156 421.164062 C 106.140625 433.839844 118.261719 441.992188 128.890625 447.277344 C 162.164062 463.828125 202.957031 458.910156 236.414062 445.492188 C 209.574219 452.996094 181.761719 455.109375 155.058594 445.648438 Z M 411.738281 102.203125 C 410.3125 112.070312 406.535156 122.410156 399.230469 129.597656 C 397.734375 131.066406 385.367188 138.425781 386.878906 138.988281 C 412.414062 148.503906 397.875 159.925781 379.105469 166.070312 C 365.230469 170.613281 349.929688 173.132812 338.375 182.753906 C 327.710938 191.632812 329.542969 193.09375 314.136719 189.523438 C 301.882812 186.683594 289.773438 182.4375 279.175781 175.535156 C 263.074219 165.058594 242.625 140.773438 252.992188 119.769531 C 262.40625 100.699219 293.097656 121.035156 308.648438 104.992188 C 316.253906 97.148438 319.101562 82.5625 330.996094 78.976562 C 339.230469 76.496094 351.105469 81.6875 359.660156 82.277344 C 377.039062 83.480469 416.75 67.601562 411.738281 102.203125" fill="#ea7e16"/></g><g id="change4_1"><path d="M 259.183594 364.085938 C 258.902344 365.453125 257.703125 366.394531 256.359375 366.394531 C 256.167969 366.394531 255.976562 366.378906 255.785156 366.339844 C 255.546875 366.289062 231.4375 361.511719 184.8125 360.859375 C 137.164062 360.195312 96.441406 339.445312 94.730469 338.5625 C 93.316406 337.828125 92.761719 336.09375 93.492188 334.675781 C 94.222656 333.261719 95.960938 332.703125 97.378906 333.4375 C 97.785156 333.644531 138.648438 354.449219 184.894531 355.09375 C 232.136719 355.753906 255.941406 360.488281 256.933594 360.6875 C 258.492188 361.007812 259.496094 362.527344 259.183594 364.085938 Z M 204.296875 409.796875 C 204.578125 411.363281 203.539062 412.863281 201.96875 413.144531 C 192.847656 414.785156 183.933594 415.429688 175.570312 415.429688 C 146.019531 415.429688 123.277344 407.410156 122.066406 406.972656 C 120.566406 406.4375 119.789062 404.785156 120.328125 403.285156 C 120.863281 401.789062 122.515625 401.007812 124.015625 401.546875 C 124.382812 401.679688 161.179688 414.621094 200.949219 407.46875 C 202.515625 407.195312 204.015625 408.230469 204.296875 409.796875 Z M 303.40625 353.238281 C 308.851562 371.460938 306.050781 393.253906 296.269531 408.761719 C 295.722656 409.628906 294.785156 410.105469 293.828125 410.105469 C 293.304688 410.105469 292.769531 409.964844 292.292969 409.660156 C 290.945312 408.8125 290.542969 407.03125 291.394531 405.683594 C 300.324219 391.523438 302.871094 371.585938 297.882812 354.890625 C 295.078125 345.503906 288.628906 332.894531 273.839844 326.160156 C 250.917969 315.722656 235.917969 312.011719 215.15625 306.871094 C 207.550781 304.988281 198.929688 302.855469 188.894531 300.136719 C 151.617188 290.027344 116.660156 268.777344 116.3125 268.5625 C 114.953125 267.734375 114.527344 265.960938 115.359375 264.601562 C 116.1875 263.242188 117.964844 262.8125 119.324219 263.644531 C 119.664062 263.855469 153.941406 284.6875 190.402344 294.570312 C 200.375 297.273438 208.964844 299.398438 216.542969 301.273438 C 237.605469 306.484375 252.820312 310.253906 276.230469 320.914062 C 289.496094 326.953125 298.894531 338.132812 303.40625 353.238281 Z M 394.335938 124.191406 C 393.601562 124.648438 384.628906 130.246094 372.3125 136.085938 L 385.554688 135.628906 C 387.125 135.523438 388.480469 136.816406 388.53125 138.410156 C 388.589844 140 387.34375 141.335938 385.75 141.390625 L 357.675781 142.359375 C 348.492188 145.851562 338.660156 148.695312 329.515625 149.53125 C 326.472656 149.808594 323.496094 149.9375 320.597656 149.9375 C 297.371094 149.9375 279.199219 141.773438 271.933594 137.925781 L 271.65625 137.78125 C 270.285156 137.15625 269.621094 135.5625 270.164062 134.136719 C 270.730469 132.644531 272.402344 131.902344 273.882812 132.464844 C 273.957031 132.492188 274.214844 132.609375 274.628906 132.828125 C 282.347656 136.914062 303.085938 146.152344 328.992188 143.789062 C 355.96875 141.320312 390.914062 119.527344 391.265625 119.308594 C 392.613281 118.464844 394.394531 118.867188 395.242188 120.214844 C 396.089844 121.5625 395.683594 123.34375 394.335938 124.191406 Z M 277.1875 66.839844 C 278.34375 65.597656 280.742188 65.949219 282.546875 67.625 C 284.347656 69.304688 284.871094 71.671875 283.714844 72.914062 C 282.558594 74.160156 280.15625 73.808594 278.355469 72.128906 C 276.554688 70.449219 276.027344 68.082031 277.1875 66.839844 Z M 273.554688 90.089844 C 294.167969 101.636719 299.128906 76.445312 285.566406 64.835938 C 285.546875 64.855469 280.675781 61.816406 279.859375 61.574219 C 278.40625 61.152344 276.714844 60.914062 275.160156 60.859375 C 263.898438 59.414062 260.972656 83.042969 273.554688 90.089844" fill="#110f0d"/></g></g></svg>